<svg xmlns="http://www.w3.org/2000/svg" width="100" height="100" fill="none"
viewBox="0 0 8382 8382">
   <path fill="#794FDD" d="M4191 -2c2316,0 4193,1877 4193,4193 0,2316 -1877,4193 -4193,4193 -2316,0 -4193,-1877 -4193,-4193 0,-2316 1877,-4193 4193,-4193z"/>
   <path fill="white" d="M5563 3252c-99,-61 -229,-61 -338,0l-775 469 -527 306 -775 469c-99,61 -229,61 -338,0l-616 -367c-99,-61 -169,-173 -169,-296l0 -724c0,-122 60,-235 169,-296l606 -357c99,-61 229,-61 338,0l606 357c99,61 169,173 169,296l0 469 527 -316 0 -469c0,-122 -60,-235 -169,-296l-1123 -673c-99,-61 -229,-61 -338,0l-1143 673c-109,61 -169,173 -169,296l0 1357c0,122 60,235 169,296l1143 673c99,61 229,61 338,0l775 -459 527 -316 775 -459c99,-61 229,-61 338,0l606 357c99,61 169,173 169,296l0 724c0,122 -60,235 -169,296l-606 367c-99,61 -229,61 -338,0l-606 -357c-99,-61 -169,-173 -169,-296l0 -469 -527 316 0 469c0,122 60,235 169,296l1143 673c99,61 229,61 338,0l1143 -673c99,-61 169,-173 169,-296l0 -1357c0,-122 -60,-235 -169,-296l-1153 -684z"/>
</svg>
